<svg xmlns="http://www.w3.org/2000/svg" xmlns:xlink="http://www.w3.org/1999/xlink" version="1.1" class="marks" width="347" height="487" viewBox="0 0 347 487"><g fill="none" stroke-miterlimit="10" transform="translate(35,28)"><g class="mark-group role-frame root" role="graphics-object" aria-roledescription="group mark container"><g transform="translate(0,0)"><path class="background" aria-hidden="true" d="M0,0h300v420h-300Z"/><g><g class="mark-group role-axis" aria-hidden="true"><g transform="translate(0.5,420.5)"><path class="background" aria-hidden="true" d="M0,0h0v0h0Z" pointer-events="none"/><g><g class="mark-rule role-axis-grid" pointer-events="none"><line transform="translate(0,-420)" x2="0" y2="420" stroke="#ECEFF4" stroke-width="1" opacity="1"/><line transform="translate(27,-420)" x2="0" y2="420" stroke="#ECEFF4" stroke-width="1" opacity="1"/><line transform="translate(55,-420)" x2="0" y2="420" stroke="#ECEFF4" stroke-width="1" opacity="1"/><line transform="translate(82,-420)" x2="0" y2="420" stroke="#ECEFF4" stroke-width="1" opacity="1"/><line transform="translate(109,-420)" x2="0" y2="420" stroke="#ECEFF4" stroke-width="1" opacity="1"/><line transform="translate(136,-420)" x2="0" y2="420" stroke="#ECEFF4" stroke-width="1" opacity="1"/><line transform="translate(164,-420)" x2="0" y2="420" stroke="#ECEFF4" stroke-width="1" opacity="1"/><line transform="translate(191,-420)" x2="0" y2="420" stroke="#ECEFF4" stroke-width="1" opacity="1"/><line transform="translate(218,-420)" x2="0" y2="420" stroke="#ECEFF4" stroke-width="1" opacity="1"/><line transform="translate(245,-420)" x2="0" y2="420" stroke="#ECEFF4" stroke-width="1" opacity="1"/><line transform="translate(273,-420)" x2="0" y2="420" stroke="#ECEFF4" stroke-width="1" opacity="1"/><line transform="translate(300,-420)" x2="0" y2="420" stroke="#ECEFF4" stroke-width="1" opacity="1"/></g></g><path class="foreground" aria-hidden="true" d="" pointer-events="none" display="none"/></g></g><g class="mark-group role-axis" aria-hidden="true"><g transform="translate(0.5,0.5)"><path class="background" aria-hidden="true" d="M0,0h0v0h0Z" pointer-events="none"/><g><g class="mark-rule role-axis-grid" pointer-events="none"><line transform="translate(0,420)" x2="300" y2="0" stroke="#ECEFF4" stroke-width="1" opacity="1"/><line transform="translate(0,373)" x2="300" y2="0" stroke="#ECEFF4" stroke-width="1" opacity="1"/><line transform="translate(0,327)" x2="300" y2="0" stroke="#ECEFF4" stroke-width="1" opacity="1"/><line transform="translate(0,280)" x2="300" y2="0" stroke="#ECEFF4" stroke-width="1" opacity="1"/><line transform="translate(0,233)" x2="300" y2="0" stroke="#ECEFF4" stroke-width="1" opacity="1"/><line transform="translate(0,187)" x2="300" y2="0" stroke="#ECEFF4" stroke-width="1" opacity="1"/><line transform="translate(0,140)" x2="300" y2="0" stroke="#ECEFF4" stroke-width="1" opacity="1"/><line transform="translate(0,93)" x2="300" y2="0" stroke="#ECEFF4" stroke-width="1" opacity="1"/><line transform="translate(0,47)" x2="300" y2="0" stroke="#ECEFF4" stroke-width="1" opacity="1"/><line transform="translate(0,0)" x2="300" y2="0" stroke="#ECEFF4" stroke-width="1" opacity="1"/></g></g><path class="foreground" aria-hidden="true" d="" pointer-events="none" display="none"/></g></g><g class="mark-group role-axis" role="graphics-symbol" aria-roledescription="axis" aria-label="X-axis titled 'Homicides Per 100K Population' for a linear scale with values from 0 to 55"><g transform="translate(0.5,420.5)"><path class="background" aria-hidden="true" d="M0,0h0v0h0Z" pointer-events="none"/><g><g class="mark-rule role-axis-tick" pointer-events="none"><line transform="translate(0,0)" x2="0" y2="3" stroke="#B0BEC5" stroke-width="1" opacity="1"/><line transform="translate(27,0)" x2="0" y2="3" stroke="#B0BEC5" stroke-width="1" opacity="1"/><line transform="translate(55,0)" x2="0" y2="3" stroke="#B0BEC5" stroke-width="1" opacity="1"/><line transform="translate(82,0)" x2="0" y2="3" stroke="#B0BEC5" stroke-width="1" opacity="1"/><line transform="translate(109,0)" x2="0" y2="3" stroke="#B0BEC5" stroke-width="1" opacity="1"/><line transform="translate(136,0)" x2="0" y2="3" stroke="#B0BEC5" stroke-width="1" opacity="1"/><line transform="translate(164,0)" x2="0" y2="3" stroke="#B0BEC5" stroke-width="1" opacity="1"/><line transform="translate(191,0)" x2="0" y2="3" stroke="#B0BEC5" stroke-width="1" opacity="1"/><line transform="translate(218,0)" x2="0" y2="3" stroke="#B0BEC5" stroke-width="1" opacity="1"/><line transform="translate(245,0)" x2="0" y2="3" stroke="#B0BEC5" stroke-width="1" opacity="1"/><line transform="translate(273,0)" x2="0" y2="3" stroke="#B0BEC5" stroke-width="1" opacity="1"/><line transform="translate(300,0)" x2="0" y2="3" stroke="#B0BEC5" stroke-width="1" opacity="1"/></g><g class="mark-text role-axis-label" pointer-events="none"><text text-anchor="middle" transform="translate(0,18)" font-family="sans-serif" font-size="11px" fill="#374151" opacity="1">0</text><text text-anchor="middle" transform="translate(27.272727272727273,18)" font-family="sans-serif" font-size="11px" fill="#374151" opacity="1">5</text><text text-anchor="middle" transform="translate(54.54545454545455,18)" font-family="sans-serif" font-size="11px" fill="#374151" opacity="1">10</text><text text-anchor="middle" transform="translate(81.81818181818181,18)" font-family="sans-serif" font-size="11px" fill="#374151" opacity="1">15</text><text text-anchor="middle" transform="translate(109.0909090909091,18)" font-family="sans-serif" font-size="11px" fill="#374151" opacity="1">20</text><text text-anchor="middle" transform="translate(136.36363636363635,18)" font-family="sans-serif" font-size="11px" fill="#374151" opacity="1">25</text><text text-anchor="middle" transform="translate(163.63636363636363,18)" font-family="sans-serif" font-size="11px" fill="#374151" opacity="1">30</text><text text-anchor="middle" transform="translate(190.9090909090909,18)" font-family="sans-serif" font-size="11px" fill="#374151" opacity="1">35</text><text text-anchor="middle" transform="translate(218.1818181818182,18)" font-family="sans-serif" font-size="11px" fill="#374151" opacity="1">40</text><text text-anchor="middle" transform="translate(245.45454545454547,18)" font-family="sans-serif" font-size="11px" fill="#374151" opacity="1">45</text><text text-anchor="middle" transform="translate(272.7272727272727,18)" font-family="sans-serif" font-size="11px" fill="#374151" opacity="1">50</text><text text-anchor="middle" transform="translate(300,18)" font-family="sans-serif" font-size="11px" fill="#374151" opacity="1">55</text></g><g class="mark-rule role-axis-domain" pointer-events="none"><line transform="translate(0,0)" x2="300" y2="0" stroke="#B0BEC5" stroke-width="1" opacity="1"/></g><g class="mark-text role-axis-title" pointer-events="none"><text text-anchor="middle" transform="translate(150,32)" font-family="sans-serif" font-size="10px" font-weight="bold" fill="#374151" opacity="1">Homicides Per 100K Population</text></g></g><path class="foreground" aria-hidden="true" d="" pointer-events="none" display="none"/></g></g><g class="mark-group role-axis" role="graphics-symbol" aria-roledescription="axis" aria-label="Y-axis titled 'Migration Rate (%)' for a linear scale with values from 0 to 45"><g transform="translate(0.5,0.5)"><path class="background" aria-hidden="true" d="M0,0h0v0h0Z" pointer-events="none"/><g><g class="mark-rule role-axis-tick" pointer-events="none"><line transform="translate(0,420)" x2="-5" y2="0" stroke="#B0BEC5" stroke-width="1" opacity="1"/><line transform="translate(0,373)" x2="-5" y2="0" stroke="#B0BEC5" stroke-width="1" opacity="1"/><line transform="translate(0,327)" x2="-5" y2="0" stroke="#B0BEC5" stroke-width="1" opacity="1"/><line transform="translate(0,280)" x2="-5" y2="0" stroke="#B0BEC5" stroke-width="1" opacity="1"/><line transform="translate(0,233)" x2="-5" y2="0" stroke="#B0BEC5" stroke-width="1" opacity="1"/><line transform="translate(0,187)" x2="-5" y2="0" stroke="#B0BEC5" stroke-width="1" opacity="1"/><line transform="translate(0,140)" x2="-5" y2="0" stroke="#B0BEC5" stroke-width="1" opacity="1"/><line transform="translate(0,93)" x2="-5" y2="0" stroke="#B0BEC5" stroke-width="1" opacity="1"/><line transform="translate(0,47)" x2="-5" y2="0" stroke="#B0BEC5" stroke-width="1" opacity="1"/><line transform="translate(0,0)" x2="-5" y2="0" stroke="#B0BEC5" stroke-width="1" opacity="1"/></g><g class="mark-text role-axis-label" pointer-events="none"><text text-anchor="middle" transform="translate(-9,423)" font-family="sans-serif" font-size="11px" fill="#374151" opacity="1">0</text><text text-anchor="middle" transform="translate(-9,376.3333333333333)" font-family="sans-serif" font-size="11px" fill="#374151" opacity="1">5</text><text text-anchor="middle" transform="translate(-9,329.6666666666667)" font-family="sans-serif" font-size="11px" fill="#374151" opacity="1">10</text><text text-anchor="middle" transform="translate(-9,283.00000000000006)" font-family="sans-serif" font-size="11px" fill="#374151" opacity="1">15</text><text text-anchor="middle" transform="translate(-9,236.33333333333334)" font-family="sans-serif" font-size="11px" fill="#374151" opacity="1">20</text><text text-anchor="middle" transform="translate(-9,189.66666666666666)" font-family="sans-serif" font-size="11px" fill="#374151" opacity="1">25</text><text text-anchor="middle" transform="translate(-9,143.00000000000003)" font-family="sans-serif" font-size="11px" fill="#374151" opacity="1">30</text><text text-anchor="middle" transform="translate(-9,96.33333333333333)" font-family="sans-serif" font-size="11px" fill="#374151" opacity="1">35</text><text text-anchor="middle" transform="translate(-9,49.666666666666686)" font-family="sans-serif" font-size="11px" fill="#374151" opacity="1">40</text><text text-anchor="middle" transform="translate(-9,3)" font-family="sans-serif" font-size="11px" fill="#374151" opacity="1">45</text></g><g class="mark-rule role-axis-domain" pointer-events="none"><line transform="translate(0,420)" x2="0" y2="-420" stroke="#B0BEC5" stroke-width="1" opacity="1"/></g><g class="mark-text role-axis-title" pointer-events="none"><text text-anchor="middle" transform="translate(-19.11767578125,210) rotate(-90) translate(0,-2)" font-family="sans-serif" font-size="10px" font-weight="bold" fill="#374151" opacity="1">Migration Rate (%)</text></g></g><path class="foreground" aria-hidden="true" d="" pointer-events="none" display="none"/></g></g><g class="mark-symbol role-mark layer_0_marks" role="graphics-object" aria-roledescription="symbol mark container"><path aria-label="Homicides Per 100K Population: 4.622678556; Migration Rate (%): 2.58967279941" role="graphics-symbol" aria-roledescription="point" transform="translate(25.214610305454546,395.8297205388021)" d="M4.472,0A4.472,4.472,0,1,1,-4.472,0A4.472,4.472,0,1,1,4.472,0" fill="#1E3A8A" stroke-width="2" opacity="0.7"/><path aria-label="Homicides Per 100K Population: 11.37982109; Migration Rate (%): 6.92399466132" role="graphics-symbol" aria-roledescription="point" transform="translate(62.071751400000004,355.37604982764947)" d="M4.472,0A4.472,4.472,0,1,1,-4.472,0A4.472,4.472,0,1,1,4.472,0" fill="#1E3A8A" stroke-width="2" opacity="0.7"/><path aria-label="Homicides Per 100K Population: 3.493530181; Migration Rate (%): 6.31155336024" role="graphics-symbol" aria-roledescription="point" transform="translate(19.05561916909091,361.09216863773565)" d="M4.472,0A4.472,4.472,0,1,1,-4.472,0A4.472,4.472,0,1,1,4.472,0" fill="#1E3A8A" stroke-width="2" opacity="0.7"/><path aria-label="Homicides Per 100K Population: 22.3840654; Migration Rate (%): 1.03506592943" role="graphics-symbol" aria-roledescription="point" transform="translate(122.09490218181818,410.3393846586568)" d="M4.472,0A4.472,4.472,0,1,1,-4.472,0A4.472,4.472,0,1,1,4.472,0" fill="#1E3A8A" stroke-width="2" opacity="0.7"/><path aria-label="Homicides Per 100K Population: 3.632038675; Migration Rate (%): 2.24870300799" role="graphics-symbol" aria-roledescription="point" transform="translate(19.811120045454548,399.01210525872864)" d="M4.472,0A4.472,4.472,0,1,1,-4.472,0A4.472,4.472,0,1,1,4.472,0" fill="#1E3A8A" stroke-width="2" opacity="0.7"/><path aria-label="Homicides Per 100K Population: 27.48436513; Migration Rate (%): 6.90582182783" role="graphics-symbol" aria-roledescription="point" transform="translate(149.91471889090909,355.5456629402429)" d="M4.472,0A4.472,4.472,0,1,1,-4.472,0A4.472,4.472,0,1,1,4.472,0" fill="#1E3A8A" stroke-width="2" opacity="0.7"/><path aria-label="Homicides Per 100K Population: 11.40870985; Migration Rate (%): 0.993818605005" role="graphics-symbol" aria-roledescription="point" transform="translate(62.22932645454545,410.72435968662217)" d="M4.472,0A4.472,4.472,0,1,1,-4.472,0A4.472,4.472,0,1,1,4.472,0" fill="#1E3A8A" stroke-width="2" opacity="0.7"/><path aria-label="Homicides Per 100K Population: 10.54158423; Migration Rate (%): 16.776577881" role="graphics-symbol" aria-roledescription="point" transform="translate(57.499550345454544,263.41860644405455)" d="M4.472,0A4.472,4.472,0,1,1,-4.472,0A4.472,4.472,0,1,1,4.472,0" fill="#1E3A8A" stroke-width="2" opacity="0.7"/><path aria-label="Homicides Per 100K Population: 14.02425488; Migration Rate (%): 6.85432719226" role="graphics-symbol" aria-roledescription="point" transform="translate(76.49593570909092,356.02627953892363)" d="M4.472,0A4.472,4.472,0,1,1,-4.472,0A4.472,4.472,0,1,1,4.472,0" fill="#1E3A8A" stroke-width="2" opacity="0.7"/><path aria-label="Homicides Per 100K Population: 18.16549846; Migration Rate (%): 28.9462627597" role="graphics-symbol" aria-roledescription="point" transform="translate(99.08453705454544,149.83488090901193)" d="M4.472,0A4.472,4.472,0,1,1,-4.472,0A4.472,4.472,0,1,1,4.472,0" fill="#1E3A8A" stroke-width="2" opacity="0.7"/><path aria-label="Homicides Per 100K Population: 19.9903643; Migration Rate (%): 7.93330174642" role="graphics-symbol" aria-roledescription="point" transform="translate(109.03835072727273,345.9558503667129)" d="M4.472,0A4.472,4.472,0,1,1,-4.472,0A4.472,4.472,0,1,1,4.472,0" fill="#1E3A8A" stroke-width="2" opacity="0.7"/><path aria-label="Homicides Per 100K Population: 38.24545497; Migration Rate (%): 12.9098683014" role="graphics-symbol" aria-roledescription="point" transform="translate(208.61157256363634,299.5078958536611)" d="M4.472,0A4.472,4.472,0,1,1,-4.472,0A4.472,4.472,0,1,1,4.472,0" fill="#1E3A8A" stroke-width="2" opacity="0.7"/><path aria-label="Homicides Per 100K Population: 52.12727188; Migration Rate (%): 43.9744644131" role="graphics-symbol" aria-roledescription="point" transform="translate(284.3305738909091,9.571665477941165)" d="M4.472,0A4.472,4.472,0,1,1,-4.472,0A4.472,4.472,0,1,1,4.472,0" fill="#1E3A8A" stroke-width="2" opacity="0.7"/><path aria-label="Homicides Per 100K Population: 28.17565299; Migration Rate (%): 8.86171462825" role="graphics-symbol" aria-roledescription="point" transform="translate(153.68537994545457,337.2906634696257)" d="M4.472,0A4.472,4.472,0,1,1,-4.472,0A4.472,4.472,0,1,1,4.472,0" fill="#1E3A8A" stroke-width="2" opacity="0.7"/><path aria-label="Homicides Per 100K Population: 11.00643161; Migration Rate (%): 13.0889629186" role="graphics-symbol" aria-roledescription="point" transform="translate(60.03508150909091,297.8363460928591)" d="M4.472,0A4.472,4.472,0,1,1,-4.472,0A4.472,4.472,0,1,1,4.472,0" fill="#1E3A8A" stroke-width="2" opacity="0.7"/><path aria-label="Homicides Per 100K Population: 12.63999658; Migration Rate (%): 4.31431021993" role="graphics-symbol" aria-roledescription="point" transform="translate(68.9454358909091,379.7331046139471)" d="M4.472,0A4.472,4.472,0,1,1,-4.472,0A4.472,4.472,0,1,1,4.472,0" fill="#1E3A8A" stroke-width="2" opacity="0.7"/><path aria-label="Homicides Per 100K Population: 7.831380386; Migration Rate (%): 10.771330926" role="graphics-symbol" aria-roledescription="point" transform="translate(42.716620287272725,319.467578023846)" d="M4.472,0A4.472,4.472,0,1,1,-4.472,0A4.472,4.472,0,1,1,4.472,0" fill="#1E3A8A" stroke-width="2" opacity="0.7"/><path aria-label="Homicides Per 100K Population: 5.71389864; Migration Rate (%): 4.88774747027" role="graphics-symbol" aria-roledescription="point" transform="translate(31.166719854545455,374.3810236108361)" d="M4.472,0A4.472,4.472,0,1,1,-4.472,0A4.472,4.472,0,1,1,4.472,0" fill="#1E3A8A" stroke-width="2" opacity="0.7"/><path aria-label="Homicides Per 100K Population: 29.36428294; Migration Rate (%): 23.6514064924" role="graphics-symbol" aria-roledescription="point" transform="translate(160.1688160363636,199.2535394040291)" d="M4.472,0A4.472,4.472,0,1,1,-4.472,0A4.472,4.472,0,1,1,4.472,0" fill="#1E3A8A" stroke-width="2" opacity="0.7"/><path aria-label="Homicides Per 100K Population: 8.901835953; Migration Rate (%): 7.77434397098" role="graphics-symbol" aria-roledescription="point" transform="translate(48.55546883454546,347.4394562708346)" d="M4.472,0A4.472,4.472,0,1,1,-4.472,0A4.472,4.472,0,1,1,4.472,0" fill="#1E3A8A" stroke-width="2" opacity="0.7"/><path aria-label="Homicides Per 100K Population: 19.30505593; Migration Rate (%): 29.3200309531" role="graphics-symbol" aria-roledescription="point" transform="translate(105.30030507272728,146.34637777093957)" d="M4.472,0A4.472,4.472,0,1,1,-4.472,0A4.472,4.472,0,1,1,4.472,0" fill="#1E3A8A" stroke-width="2" opacity="0.7"/></g><g class="mark-line role-mark layer_1_marks" role="graphics-object" aria-roledescription="line mark container"><path aria-label="homicides_per_100k_population: 3.493530181; migration_rate: 3.27429315538" role="graphics-symbol" aria-roledescription="line mark" d="M19.056,389.44L19.811,388L25.215,377.422L31.167,365.644L42.717,342.188L48.555,338.002L57.5,340.722L60.035,343.865L62.072,346.44L62.229,346.627L68.945,354.153L76.496,345.613L99.085,317.224L105.3,318.162L109.038,320.043L122.095,318.884L149.915,317.075L153.685,316.023L160.169,314.136L208.612,211.399L284.331,33.947" stroke="#DC2626" stroke-width="2" opacity="0.9"/></g><g class="mark-group role-title"><g transform="translate(150,-23)"><path class="background" aria-hidden="true" d="M0,0h0v0h0Z" pointer-events="none"/><g><g class="mark-text role-title-text" role="graphics-symbol" aria-roledescription="title" aria-label="Title text 'Homicides Per 100K Population vs Migration Rate'" pointer-events="none"><text text-anchor="middle" transform="translate(0,10)" font-family="Inter, Helvetica, Arial, sans-serif" font-size="13px" font-weight="normal" fill="#1F2937" opacity="1">Homicides Per 100K Population vs Migration Rate</text></g></g><path class="foreground" aria-hidden="true" d="" pointer-events="none" display="none"/></g></g></g><path class="foreground" aria-hidden="true" d="" display="none"/></g></g></g></svg>