<svg xmlns="http://www.w3.org/2000/svg" xmlns:xlink="http://www.w3.org/1999/xlink" version="1.1" class="marks" width="620" height="774" viewBox="0 0 620 774"><g fill="none" stroke-miterlimit="10" transform="translate(78,35)"><g class="mark-group role-frame root" role="graphics-object" aria-roledescription="group mark container"><g transform="translate(0,0)"><path class="background" aria-hidden="true" d="M0,0h520v700h-520Z"/><g><g class="mark-group role-axis" aria-hidden="true"><g transform="translate(0.5,700.5)"><path class="background" aria-hidden="true" d="M0,0h0v0h0Z" pointer-events="none"/><g><g class="mark-rule role-axis-grid" pointer-events="none"><line transform="translate(0,0)" x2="0" y2="-700" stroke="#ECEFF4" stroke-width="1" opacity="1"/><line transform="translate(47,0)" x2="0" y2="-700" stroke="#ECEFF4" stroke-width="1" opacity="1"/><line transform="translate(95,0)" x2="0" y2="-700" stroke="#ECEFF4" stroke-width="1" opacity="1"/><line transform="translate(142,0)" x2="0" y2="-700" stroke="#ECEFF4" stroke-width="1" opacity="1"/><line transform="translate(189,0)" x2="0" y2="-700" stroke="#ECEFF4" stroke-width="1" opacity="1"/><line transform="translate(236,0)" x2="0" y2="-700" stroke="#ECEFF4" stroke-width="1" opacity="1"/><line transform="translate(284,0)" x2="0" y2="-700" stroke="#ECEFF4" stroke-width="1" opacity="1"/><line transform="translate(331,0)" x2="0" y2="-700" stroke="#ECEFF4" stroke-width="1" opacity="1"/><line transform="translate(378,0)" x2="0" y2="-700" stroke="#ECEFF4" stroke-width="1" opacity="1"/><line transform="translate(425,0)" x2="0" y2="-700" stroke="#ECEFF4" stroke-width="1" opacity="1"/><line transform="translate(473,0)" x2="0" y2="-700" stroke="#ECEFF4" stroke-width="1" opacity="1"/><line transform="translate(520,0)" x2="0" y2="-700" stroke="#ECEFF4" stroke-width="1" opacity="1"/></g></g><path class="foreground" aria-hidden="true" d="" pointer-events="none" display="none"/></g></g><g class="mark-group role-axis" aria-hidden="true"><g transform="translate(0.5,0.5)"><path class="background" aria-hidden="true" d="M0,0h0v0h0Z" pointer-events="none"/><g><g class="mark-rule role-axis-grid" pointer-events="none"><line transform="translate(0,17)" x2="520" y2="0" stroke="#ECEFF4" stroke-width="1" opacity="1"/><line transform="translate(0,52)" x2="520" y2="0" stroke="#ECEFF4" stroke-width="1" opacity="1"/><line transform="translate(0,87)" x2="520" y2="0" stroke="#ECEFF4" stroke-width="1" opacity="1"/><line transform="translate(0,122)" x2="520" y2="0" stroke="#ECEFF4" stroke-width="1" opacity="1"/><line transform="translate(0,157)" x2="520" y2="0" stroke="#ECEFF4" stroke-width="1" opacity="1"/><line transform="translate(0,192)" x2="520" y2="0" stroke="#ECEFF4" stroke-width="1" opacity="1"/><line transform="translate(0,227)" x2="520" y2="0" stroke="#ECEFF4" stroke-width="1" opacity="1"/><line transform="translate(0,262)" x2="520" y2="0" stroke="#ECEFF4" stroke-width="1" opacity="1"/><line transform="translate(0,297)" x2="520" y2="0" stroke="#ECEFF4" stroke-width="1" opacity="1"/><line transform="translate(0,332)" x2="520" y2="0" stroke="#ECEFF4" stroke-width="1" opacity="1"/><line transform="translate(0,367)" x2="520" y2="0" stroke="#ECEFF4" stroke-width="1" opacity="1"/><line transform="translate(0,402)" x2="520" y2="0" stroke="#ECEFF4" stroke-width="1" opacity="1"/><line transform="translate(0,437)" x2="520" y2="0" stroke="#ECEFF4" stroke-width="1" opacity="1"/><line transform="translate(0,472)" x2="520" y2="0" stroke="#ECEFF4" stroke-width="1" opacity="1"/><line transform="translate(0,507)" x2="520" y2="0" stroke="#ECEFF4" stroke-width="1" opacity="1"/><line transform="translate(0,542)" x2="520" y2="0" stroke="#ECEFF4" stroke-width="1" opacity="1"/><line transform="translate(0,577)" x2="520" y2="0" stroke="#ECEFF4" stroke-width="1" opacity="1"/><line transform="translate(0,612)" x2="520" y2="0" stroke="#ECEFF4" stroke-width="1" opacity="1"/><line transform="translate(0,647)" x2="520" y2="0" stroke="#ECEFF4" stroke-width="1" opacity="1"/><line transform="translate(0,682)" x2="520" y2="0" stroke="#ECEFF4" stroke-width="1" opacity="1"/></g></g><path class="foreground" aria-hidden="true" d="" pointer-events="none" display="none"/></g></g><g class="mark-group role-axis" role="graphics-symbol" aria-roledescription="axis" aria-label="X-axis titled 'GDP per Capita (USD)' for a linear scale with values from 0 to 55,000"><g transform="translate(0.5,700.5)"><path class="background" aria-hidden="true" d="M0,0h0v0h0Z" pointer-events="none"/><g><g class="mark-rule role-axis-tick" pointer-events="none"><line transform="translate(0,0)" x2="0" y2="3" stroke="#B0BEC5" stroke-width="1" opacity="1"/><line transform="translate(47,0)" x2="0" y2="3" stroke="#B0BEC5" stroke-width="1" opacity="1"/><line transform="translate(95,0)" x2="0" y2="3" stroke="#B0BEC5" stroke-width="1" opacity="1"/><line transform="translate(142,0)" x2="0" y2="3" stroke="#B0BEC5" stroke-width="1" opacity="1"/><line transform="translate(189,0)" x2="0" y2="3" stroke="#B0BEC5" stroke-width="1" opacity="1"/><line transform="translate(236,0)" x2="0" y2="3" stroke="#B0BEC5" stroke-width="1" opacity="1"/><line transform="translate(284,0)" x2="0" y2="3" stroke="#B0BEC5" stroke-width="1" opacity="1"/><line transform="translate(331,0)" x2="0" y2="3" stroke="#B0BEC5" stroke-width="1" opacity="1"/><line transform="translate(378,0)" x2="0" y2="3" stroke="#B0BEC5" stroke-width="1" opacity="1"/><line transform="translate(425,0)" x2="0" y2="3" stroke="#B0BEC5" stroke-width="1" opacity="1"/><line transform="translate(473,0)" x2="0" y2="3" stroke="#B0BEC5" stroke-width="1" opacity="1"/><line transform="translate(520,0)" x2="0" y2="3" stroke="#B0BEC5" stroke-width="1" opacity="1"/></g><g class="mark-text role-axis-label" pointer-events="none"><text text-anchor="middle" transform="translate(0,18)" font-family="sans-serif" font-size="11px" fill="#374151" opacity="1">0</text><text text-anchor="middle" transform="translate(47.27272727272727,18)" font-family="sans-serif" font-size="11px" fill="#374151" opacity="1">5,000</text><text text-anchor="middle" transform="translate(94.54545454545455,18)" font-family="sans-serif" font-size="11px" fill="#374151" opacity="1">10,000</text><text text-anchor="middle" transform="translate(141.8181818181818,18)" font-family="sans-serif" font-size="11px" fill="#374151" opacity="1">15,000</text><text text-anchor="middle" transform="translate(189.0909090909091,18)" font-family="sans-serif" font-size="11px" fill="#374151" opacity="1">20,000</text><text text-anchor="middle" transform="translate(236.36363636363635,18)" font-family="sans-serif" font-size="11px" fill="#374151" opacity="1">25,000</text><text text-anchor="middle" transform="translate(283.6363636363636,18)" font-family="sans-serif" font-size="11px" fill="#374151" opacity="1">30,000</text><text text-anchor="middle" transform="translate(330.9090909090909,18)" font-family="sans-serif" font-size="11px" fill="#374151" opacity="1">35,000</text><text text-anchor="middle" transform="translate(378.1818181818182,18)" font-family="sans-serif" font-size="11px" fill="#374151" opacity="1">40,000</text><text text-anchor="middle" transform="translate(425.4545454545455,18)" font-family="sans-serif" font-size="11px" fill="#374151" opacity="1">45,000</text><text text-anchor="middle" transform="translate(472.7272727272727,18)" font-family="sans-serif" font-size="11px" fill="#374151" opacity="1">50,000</text><text text-anchor="middle" transform="translate(520,18)" font-family="sans-serif" font-size="11px" fill="#374151" opacity="1">55,000</text></g><g class="mark-rule role-axis-domain" pointer-events="none"><line transform="translate(0,0)" x2="520" y2="0" stroke="#B0BEC5" stroke-width="1" opacity="1"/></g><g class="mark-text role-axis-title" pointer-events="none"><text text-anchor="middle" transform="translate(260,32)" font-family="sans-serif" font-size="10px" font-weight="bold" fill="#374151" opacity="1">GDP per Capita (USD)</text></g></g><path class="foreground" aria-hidden="true" d="" pointer-events="none" display="none"/></g></g><g class="mark-group role-axis" role="graphics-symbol" aria-roledescription="axis" aria-label="Y-axis titled 'Top 10 Origin Countries (2024)' for a discrete scale with 20 values: Mexico, Colombia, Brazil, Haiti, Puerto Rico, ending with Uruguay"><g transform="translate(0.5,0.5)"><path class="background" aria-hidden="true" d="M0,0h0v0h0Z" pointer-events="none"/><g><g class="mark-rule role-axis-tick" pointer-events="none"><line transform="translate(0,17)" x2="-5" y2="0" stroke="#B0BEC5" stroke-width="1" opacity="1"/><line transform="translate(0,52)" x2="-5" y2="0" stroke="#B0BEC5" stroke-width="1" opacity="1"/><line transform="translate(0,87)" x2="-5" y2="0" stroke="#B0BEC5" stroke-width="1" opacity="1"/><line transform="translate(0,122)" x2="-5" y2="0" stroke="#B0BEC5" stroke-width="1" opacity="1"/><line transform="translate(0,157)" x2="-5" y2="0" stroke="#B0BEC5" stroke-width="1" opacity="1"/><line transform="translate(0,192)" x2="-5" y2="0" stroke="#B0BEC5" stroke-width="1" opacity="1"/><line transform="translate(0,227)" x2="-5" y2="0" stroke="#B0BEC5" stroke-width="1" opacity="1"/><line transform="translate(0,262)" x2="-5" y2="0" stroke="#B0BEC5" stroke-width="1" opacity="1"/><line transform="translate(0,297)" x2="-5" y2="0" stroke="#B0BEC5" stroke-width="1" opacity="1"/><line transform="translate(0,332)" x2="-5" y2="0" stroke="#B0BEC5" stroke-width="1" opacity="1"/><line transform="translate(0,367)" x2="-5" y2="0" stroke="#B0BEC5" stroke-width="1" opacity="1"/><line transform="translate(0,402)" x2="-5" y2="0" stroke="#B0BEC5" stroke-width="1" opacity="1"/><line transform="translate(0,437)" x2="-5" y2="0" stroke="#B0BEC5" stroke-width="1" opacity="1"/><line transform="translate(0,472)" x2="-5" y2="0" stroke="#B0BEC5" stroke-width="1" opacity="1"/><line transform="translate(0,507)" x2="-5" y2="0" stroke="#B0BEC5" stroke-width="1" opacity="1"/><line transform="translate(0,542)" x2="-5" y2="0" stroke="#B0BEC5" stroke-width="1" opacity="1"/><line transform="translate(0,577)" x2="-5" y2="0" stroke="#B0BEC5" stroke-width="1" opacity="1"/><line transform="translate(0,612)" x2="-5" y2="0" stroke="#B0BEC5" stroke-width="1" opacity="1"/><line transform="translate(0,647)" x2="-5" y2="0" stroke="#B0BEC5" stroke-width="1" opacity="1"/><line transform="translate(0,682)" x2="-5" y2="0" stroke="#B0BEC5" stroke-width="1" opacity="1"/></g><g class="mark-text role-axis-label" pointer-events="none"><text text-anchor="middle" transform="translate(-9,20)" font-family="sans-serif" font-size="11px" fill="#374151" opacity="1">Mexico</text><text text-anchor="middle" transform="translate(-9,55)" font-family="sans-serif" font-size="11px" fill="#374151" opacity="1">Colombia</text><text text-anchor="middle" transform="translate(-9,90)" font-family="sans-serif" font-size="11px" fill="#374151" opacity="1">Brazil</text><text text-anchor="middle" transform="translate(-9,125)" font-family="sans-serif" font-size="11px" fill="#374151" opacity="1">Haiti</text><text text-anchor="middle" transform="translate(-9,160)" font-family="sans-serif" font-size="11px" fill="#374151" opacity="1">Puerto Rico</text><text text-anchor="middle" transform="translate(-9,195)" font-family="sans-serif" font-size="11px" fill="#374151" opacity="1">Dominican Republic</text><text text-anchor="middle" transform="translate(-9,230)" font-family="sans-serif" font-size="11px" fill="#374151" opacity="1">El Salvador</text><text text-anchor="middle" transform="translate(-9,265)" font-family="sans-serif" font-size="11px" fill="#374151" opacity="1">Peru</text><text text-anchor="middle" transform="translate(-9,300)" font-family="sans-serif" font-size="11px" fill="#374151" opacity="1">Guatemala</text><text text-anchor="middle" transform="translate(-9,335)" font-family="sans-serif" font-size="11px" fill="#374151" opacity="1">Honduras</text><text text-anchor="middle" transform="translate(-9,370)" font-family="sans-serif" font-size="11px" fill="#374151" opacity="1">Jamaica</text><text text-anchor="middle" transform="translate(-9,405)" font-family="sans-serif" font-size="11px" fill="#374151" opacity="1">Ecuador</text><text text-anchor="middle" transform="translate(-9,440)" font-family="sans-serif" font-size="11px" fill="#374151" opacity="1">Argentina</text><text text-anchor="middle" transform="translate(-9,475)" font-family="sans-serif" font-size="11px" fill="#374151" opacity="1">Nicaragua</text><text text-anchor="middle" transform="translate(-9,510)" font-family="sans-serif" font-size="11px" fill="#374151" opacity="1">Bolivia</text><text text-anchor="middle" transform="translate(-9,545)" font-family="sans-serif" font-size="11px" fill="#374151" opacity="1">Paraguay</text><text text-anchor="middle" transform="translate(-9,580)" font-family="sans-serif" font-size="11px" fill="#374151" opacity="1">Guyana</text><text text-anchor="middle" transform="translate(-9,615)" font-family="sans-serif" font-size="11px" fill="#374151" opacity="1">Chile</text><text text-anchor="middle" transform="translate(-9,650)" font-family="sans-serif" font-size="11px" fill="#374151" opacity="1">Trinidad and Tobago</text><text text-anchor="middle" transform="translate(-9,685)" font-family="sans-serif" font-size="11px" fill="#374151" opacity="1">Uruguay</text></g><g class="mark-rule role-axis-domain" pointer-events="none"><line transform="translate(0,0)" x2="0" y2="700" stroke="#B0BEC5" stroke-width="1" opacity="1"/></g><g class="mark-text role-axis-title" pointer-events="none"><text text-anchor="middle" transform="translate(-62.84375,350) rotate(-90) translate(0,-2)" font-family="sans-serif" font-size="10px" font-weight="bold" fill="#374151" opacity="1">Top 10 Origin Countries (2024)</text></g></g><path class="foreground" aria-hidden="true" d="" pointer-events="none" display="none"/></g></g><g class="mark-rule role-mark layer_0_marks" role="graphics-object" aria-roledescription="rule mark container"><line aria-label="gdp_per_capita: 14157.9445836; Top 10 Origin Countries (2024): Mexico; weighted_avg_dest_gdp: 25322.2550834" role="graphics-symbol" aria-roledescription="rule mark" transform="translate(133.85693060843866,17.5)" x2="105.55348108947908" y2="0" stroke="#9CA3AF" stroke-width="2" opacity="0.9"/><line aria-label="gdp_per_capita: 7913.98801465; Top 10 Origin Countries (2024): Colombia; weighted_avg_dest_gdp: 26226.9970294" role="graphics-symbol" aria-roledescription="rule mark" transform="translate(74.82315941119349,52.5)" x2="173.14117613906944" y2="0" stroke="#9CA3AF" stroke-width="2" opacity="0.9"/><line aria-label="gdp_per_capita: 10280.3148624; Top 10 Origin Countries (2024): Brazil; weighted_avg_dest_gdp: 24451.6658905" role="graphics-symbol" aria-roledescription="rule mark" transform="translate(97.19570415400563,87.5)" x2="133.9836824470456" y2="0" stroke="#9CA3AF" stroke-width="2" opacity="0.9"/><line aria-label="gdp_per_capita: 2142.62330527; Top 10 Origin Countries (2024): Haiti; weighted_avg_dest_gdp: 39241.3762411" role="graphics-symbol" aria-roledescription="rule mark" transform="translate(20.257529431623624,122.5)" x2="350.7518459389073" y2="0" stroke="#9CA3AF" stroke-width="2" opacity="0.9"/><line aria-label="gdp_per_capita: 39285.0174586; Top 10 Origin Countries (2024): Puerto Rico; weighted_avg_dest_gdp: 44396.7009187" role="graphics-symbol" aria-roledescription="rule mark" transform="translate(371.42198324480944,157.5)" x2="48.32864362337233" y2="0" stroke="#9CA3AF" stroke-width="2" opacity="0.9"/><line aria-label="gdp_per_capita: 10875.6618443; Top 10 Origin Countries (2024): Dominican Republic; weighted_avg_dest_gdp: 38250.6127591" role="graphics-symbol" aria-roledescription="rule mark" transform="translate(102.82443925528695,192.5)" x2="258.8177177394036" y2="0" stroke="#9CA3AF" stroke-width="2" opacity="0.9"/><line aria-label="gdp_per_capita: 5579.65969165; Top 10 Origin Countries (2024): El Salvador; weighted_avg_dest_gdp: 38134.6162352" role="graphics-symbol" aria-roledescription="rule mark" transform="translate(52.7531461756027,227.5)" x2="307.7923164119854" y2="0" stroke="#9CA3AF" stroke-width="2" opacity="0.9"/><line aria-label="gdp_per_capita: 8452.37167048; Top 10 Origin Countries (2024): Peru; weighted_avg_dest_gdp: 25611.7858126" role="graphics-symbol" aria-roledescription="rule mark" transform="translate(79.91333215722749,262.5)" x2="162.23446098041796" y2="0" stroke="#9CA3AF" stroke-width="2" opacity="0.9"/><line aria-label="gdp_per_capita: 6150.02597768; Top 10 Origin Countries (2024): Guatemala; weighted_avg_dest_gdp: 38681.9621311" role="graphics-symbol" aria-roledescription="rule mark" transform="translate(58.14570015259681,297.5)" x2="307.5746690866305" y2="0" stroke="#9CA3AF" stroke-width="2" opacity="0.9"/><line aria-label="gdp_per_capita: 3426.43483329; Top 10 Origin Countries (2024): Honduras; weighted_avg_dest_gdp: 44357.2087206" role="graphics-symbol" aria-roledescription="rule mark" transform="translate(32.395383878370865,332.5)" x2="386.9818622068655" y2="0" stroke="#9CA3AF" stroke-width="2" opacity="0.9"/><line aria-label="gdp_per_capita: 7019.7463478; Top 10 Origin Countries (2024): Jamaica; weighted_avg_dest_gdp: 26099.2656119" role="graphics-symbol" aria-roledescription="rule mark" transform="translate(66.36851092469746,367.5)" x2="180.3881821329265" y2="0" stroke="#9CA3AF" stroke-width="2" opacity="0.9"/><line aria-label="gdp_per_capita: 6874.70573977; Top 10 Origin Countries (2024): Ecuador; weighted_avg_dest_gdp: 24951.2491507" role="graphics-symbol" aria-roledescription="rule mark" transform="translate(64.99721790324217,402.5)" x2="170.9055013400088" y2="0" stroke="#9CA3AF" stroke-width="2" opacity="0.9"/><line aria-label="gdp_per_capita: 13858.2039802; Top 10 Origin Countries (2024): Argentina; weighted_avg_dest_gdp: 25010.4768724" role="graphics-symbol" aria-roledescription="rule mark" transform="translate(131.02301944917136,437.5)" x2="105.43967098062436" y2="0" stroke="#9CA3AF" stroke-width="2" opacity="0.9"/><line aria-label="gdp_per_capita: 2847.53966339; Top 10 Origin Countries (2024): Nicaragua; weighted_avg_dest_gdp: 37883.9331516" role="graphics-symbol" aria-roledescription="rule mark" transform="translate(26.922193181188902,472.5)" x2="331.25317479773366" y2="0" stroke="#9CA3AF" stroke-width="2" opacity="0.9"/><line aria-label="gdp_per_capita: 4001.21133991; Top 10 Origin Countries (2024): Bolivia; weighted_avg_dest_gdp: 21084.813005" role="graphics-symbol" aria-roledescription="rule mark" transform="translate(37.82963448640247,507.5)" x2="161.5176884704196" y2="0" stroke="#9CA3AF" stroke-width="2" opacity="0.9"/><line aria-label="gdp_per_capita: 6416.09709003; Top 10 Origin Countries (2024): Paraguay; weighted_avg_dest_gdp: 21565.2005983" role="graphics-symbol" aria-roledescription="rule mark" transform="translate(60.6612815784576,542.5)" x2="143.22788771471735" y2="0" stroke="#9CA3AF" stroke-width="2" opacity="0.9"/><line aria-label="gdp_per_capita: 29883.6341152; Top 10 Origin Countries (2024): Guyana; weighted_avg_dest_gdp: 47786.0312913" role="graphics-symbol" aria-roledescription="rule mark" transform="translate(282.5361770891643,577.5)" x2="169.25902784689856" y2="0" stroke="#9CA3AF" stroke-width="2" opacity="0.9"/><line aria-label="gdp_per_capita: 16709.8893972; Top 10 Origin Countries (2024): Chile; weighted_avg_dest_gdp: 16595.5386638" role="graphics-symbol" aria-roledescription="rule mark" transform="translate(157.98440884654454,612.5)" x2="-1.08113420665822" y2="0" stroke="#9CA3AF" stroke-width="2" opacity="0.9"/><line aria-label="gdp_per_capita: 19314.7163433; Top 10 Origin Countries (2024): Trinidad and Tobago; weighted_avg_dest_gdp: 51079.5254395" role="graphics-symbol" aria-roledescription="rule mark" transform="translate(182.6118636090639,647.5)" x2="300.32183145558395" y2="0" stroke="#9CA3AF" stroke-width="2" opacity="0.9"/><line aria-label="gdp_per_capita: 23906.5133029; Top 10 Origin Countries (2024): Uruguay; weighted_avg_dest_gdp: 18967.663774" role="graphics-symbol" aria-roledescription="rule mark" transform="translate(226.0252166823493,682.5)" x2="-46.694577364730094" y2="0" stroke="#9CA3AF" stroke-width="2" opacity="0.9"/></g><g class="mark-symbol role-mark layer_1_marks" role="graphics-object" aria-roledescription="symbol mark container"><path aria-label="GDP per Capita (USD): 14157.9445836; origin: Mexico" role="graphics-symbol" aria-roledescription="point" transform="translate(133.85693060843866,17.5)" d="M4.183,0A4.183,4.183,0,1,1,-4.183,0A4.183,4.183,0,1,1,4.183,0" stroke="#002147" stroke-width="2" opacity="0.9"/><path aria-label="GDP per Capita (USD): 7913.98801465; origin: Colombia" role="graphics-symbol" aria-roledescription="point" transform="translate(74.82315941119349,52.5)" d="M4.183,0A4.183,4.183,0,1,1,-4.183,0A4.183,4.183,0,1,1,4.183,0" stroke="#002147" stroke-width="2" opacity="0.9"/><path aria-label="GDP per Capita (USD): 10280.3148624; origin: Brazil" role="graphics-symbol" aria-roledescription="point" transform="translate(97.19570415400563,87.5)" d="M4.183,0A4.183,4.183,0,1,1,-4.183,0A4.183,4.183,0,1,1,4.183,0" stroke="#002147" stroke-width="2" opacity="0.9"/><path aria-label="GDP per Capita (USD): 2142.62330527; origin: Haiti" role="graphics-symbol" aria-roledescription="point" transform="translate(20.257529431623624,122.5)" d="M4.183,0A4.183,4.183,0,1,1,-4.183,0A4.183,4.183,0,1,1,4.183,0" stroke="#002147" stroke-width="2" opacity="0.9"/><path aria-label="GDP per Capita (USD): 39285.0174586; origin: Puerto Rico" role="graphics-symbol" aria-roledescription="point" transform="translate(371.42198324480944,157.5)" d="M4.183,0A4.183,4.183,0,1,1,-4.183,0A4.183,4.183,0,1,1,4.183,0" stroke="#002147" stroke-width="2" opacity="0.9"/><path aria-label="GDP per Capita (USD): 10875.6618443; origin: Dominican Republic" role="graphics-symbol" aria-roledescription="point" transform="translate(102.82443925528695,192.5)" d="M4.183,0A4.183,4.183,0,1,1,-4.183,0A4.183,4.183,0,1,1,4.183,0" stroke="#002147" stroke-width="2" opacity="0.9"/><path aria-label="GDP per Capita (USD): 5579.65969165; origin: El Salvador" role="graphics-symbol" aria-roledescription="point" transform="translate(52.7531461756027,227.5)" d="M4.183,0A4.183,4.183,0,1,1,-4.183,0A4.183,4.183,0,1,1,4.183,0" stroke="#002147" stroke-width="2" opacity="0.9"/><path aria-label="GDP per Capita (USD): 8452.37167048; origin: Peru" role="graphics-symbol" aria-roledescription="point" transform="translate(79.91333215722749,262.5)" d="M4.183,0A4.183,4.183,0,1,1,-4.183,0A4.183,4.183,0,1,1,4.183,0" stroke="#002147" stroke-width="2" opacity="0.9"/><path aria-label="GDP per Capita (USD): 6150.02597768; origin: Guatemala" role="graphics-symbol" aria-roledescription="point" transform="translate(58.14570015259681,297.5)" d="M4.183,0A4.183,4.183,0,1,1,-4.183,0A4.183,4.183,0,1,1,4.183,0" stroke="#002147" stroke-width="2" opacity="0.9"/><path aria-label="GDP per Capita (USD): 3426.43483329; origin: Honduras" role="graphics-symbol" aria-roledescription="point" transform="translate(32.395383878370865,332.5)" d="M4.183,0A4.183,4.183,0,1,1,-4.183,0A4.183,4.183,0,1,1,4.183,0" stroke="#002147" stroke-width="2" opacity="0.9"/><path aria-label="GDP per Capita (USD): 7019.7463478; origin: Jamaica" role="graphics-symbol" aria-roledescription="point" transform="translate(66.36851092469746,367.5)" d="M4.183,0A4.183,4.183,0,1,1,-4.183,0A4.183,4.183,0,1,1,4.183,0" stroke="#002147" stroke-width="2" opacity="0.9"/><path aria-label="GDP per Capita (USD): 6874.70573977; origin: Ecuador" role="graphics-symbol" aria-roledescription="point" transform="translate(64.99721790324217,402.5)" d="M4.183,0A4.183,4.183,0,1,1,-4.183,0A4.183,4.183,0,1,1,4.183,0" stroke="#002147" stroke-width="2" opacity="0.9"/><path aria-label="GDP per Capita (USD): 13858.2039802; origin: Argentina" role="graphics-symbol" aria-roledescription="point" transform="translate(131.02301944917136,437.5)" d="M4.183,0A4.183,4.183,0,1,1,-4.183,0A4.183,4.183,0,1,1,4.183,0" stroke="#002147" stroke-width="2" opacity="0.9"/><path aria-label="GDP per Capita (USD): 2847.53966339; origin: Nicaragua" role="graphics-symbol" aria-roledescription="point" transform="translate(26.922193181188902,472.5)" d="M4.183,0A4.183,4.183,0,1,1,-4.183,0A4.183,4.183,0,1,1,4.183,0" stroke="#002147" stroke-width="2" opacity="0.9"/><path aria-label="GDP per Capita (USD): 4001.21133991; origin: Bolivia" role="graphics-symbol" aria-roledescription="point" transform="translate(37.82963448640247,507.5)" d="M4.183,0A4.183,4.183,0,1,1,-4.183,0A4.183,4.183,0,1,1,4.183,0" stroke="#002147" stroke-width="2" opacity="0.9"/><path aria-label="GDP per Capita (USD): 6416.09709003; origin: Paraguay" role="graphics-symbol" aria-roledescription="point" transform="translate(60.6612815784576,542.5)" d="M4.183,0A4.183,4.183,0,1,1,-4.183,0A4.183,4.183,0,1,1,4.183,0" stroke="#002147" stroke-width="2" opacity="0.9"/><path aria-label="GDP per Capita (USD): 29883.6341152; origin: Guyana" role="graphics-symbol" aria-roledescription="point" transform="translate(282.5361770891643,577.5)" d="M4.183,0A4.183,4.183,0,1,1,-4.183,0A4.183,4.183,0,1,1,4.183,0" stroke="#002147" stroke-width="2" opacity="0.9"/><path aria-label="GDP per Capita (USD): 16709.8893972; origin: Chile" role="graphics-symbol" aria-roledescription="point" transform="translate(157.98440884654454,612.5)" d="M4.183,0A4.183,4.183,0,1,1,-4.183,0A4.183,4.183,0,1,1,4.183,0" stroke="#002147" stroke-width="2" opacity="0.9"/><path aria-label="GDP per Capita (USD): 19314.7163433; origin: Trinidad and Tobago" role="graphics-symbol" aria-roledescription="point" transform="translate(182.6118636090639,647.5)" d="M4.183,0A4.183,4.183,0,1,1,-4.183,0A4.183,4.183,0,1,1,4.183,0" stroke="#002147" stroke-width="2" opacity="0.9"/><path aria-label="GDP per Capita (USD): 23906.5133029; origin: Uruguay" role="graphics-symbol" aria-roledescription="point" transform="translate(226.0252166823493,682.5)" d="M4.183,0A4.183,4.183,0,1,1,-4.183,0A4.183,4.183,0,1,1,4.183,0" stroke="#002147" stroke-width="2" opacity="0.9"/></g><g class="mark-symbol role-mark layer_2_marks" role="graphics-object" aria-roledescription="symbol mark container"><path aria-label="weighted_avg_dest_gdp: 25322.2550834; origin: Mexico" role="graphics-symbol" aria-roledescription="point" transform="translate(239.41041169791774,17.5)" d="M4.183,0A4.183,4.183,0,1,1,-4.183,0A4.183,4.183,0,1,1,4.183,0" stroke="#DC2626" stroke-width="2" opacity="0.9"/><path aria-label="weighted_avg_dest_gdp: 26226.9970294; origin: Colombia" role="graphics-symbol" aria-roledescription="point" transform="translate(247.96433555026294,52.5)" d="M4.183,0A4.183,4.183,0,1,1,-4.183,0A4.183,4.183,0,1,1,4.183,0" stroke="#DC2626" stroke-width="2" opacity="0.9"/><path aria-label="weighted_avg_dest_gdp: 24451.6658905; origin: Brazil" role="graphics-symbol" aria-roledescription="point" transform="translate(231.17938660105122,87.5)" d="M4.183,0A4.183,4.183,0,1,1,-4.183,0A4.183,4.183,0,1,1,4.183,0" stroke="#DC2626" stroke-width="2" opacity="0.9"/><path aria-label="weighted_avg_dest_gdp: 39241.3762411; origin: Haiti" role="graphics-symbol" aria-roledescription="point" transform="translate(371.0093753705309,122.5)" d="M4.183,0A4.183,4.183,0,1,1,-4.183,0A4.183,4.183,0,1,1,4.183,0" stroke="#DC2626" stroke-width="2" opacity="0.9"/><path aria-label="weighted_avg_dest_gdp: 44396.7009187; origin: Puerto Rico" role="graphics-symbol" aria-roledescription="point" transform="translate(419.75062686818177,157.5)" d="M4.183,0A4.183,4.183,0,1,1,-4.183,0A4.183,4.183,0,1,1,4.183,0" stroke="#DC2626" stroke-width="2" opacity="0.9"/><path aria-label="weighted_avg_dest_gdp: 38250.6127591; origin: Dominican Republic" role="graphics-symbol" aria-roledescription="point" transform="translate(361.64215699469054,192.5)" d="M4.183,0A4.183,4.183,0,1,1,-4.183,0A4.183,4.183,0,1,1,4.183,0" stroke="#DC2626" stroke-width="2" opacity="0.9"/><path aria-label="weighted_avg_dest_gdp: 38134.6162352; origin: El Salvador" role="graphics-symbol" aria-roledescription="point" transform="translate(360.5454625875881,227.5)" d="M4.183,0A4.183,4.183,0,1,1,-4.183,0A4.183,4.183,0,1,1,4.183,0" stroke="#DC2626" stroke-width="2" opacity="0.9"/><path aria-label="weighted_avg_dest_gdp: 25611.7858126; origin: Peru" role="graphics-symbol" aria-roledescription="point" transform="translate(242.14779313764546,262.5)" d="M4.183,0A4.183,4.183,0,1,1,-4.183,0A4.183,4.183,0,1,1,4.183,0" stroke="#DC2626" stroke-width="2" opacity="0.9"/><path aria-label="weighted_avg_dest_gdp: 38681.9621311; origin: Guatemala" role="graphics-symbol" aria-roledescription="point" transform="translate(365.7203692392273,297.5)" d="M4.183,0A4.183,4.183,0,1,1,-4.183,0A4.183,4.183,0,1,1,4.183,0" stroke="#DC2626" stroke-width="2" opacity="0.9"/><path aria-label="weighted_avg_dest_gdp: 44357.2087206; origin: Honduras" role="graphics-symbol" aria-roledescription="point" transform="translate(419.3772460852364,332.5)" d="M4.183,0A4.183,4.183,0,1,1,-4.183,0A4.183,4.183,0,1,1,4.183,0" stroke="#DC2626" stroke-width="2" opacity="0.9"/><path aria-label="weighted_avg_dest_gdp: 26099.2656119; origin: Jamaica" role="graphics-symbol" aria-roledescription="point" transform="translate(246.75669305762395,367.5)" d="M4.183,0A4.183,4.183,0,1,1,-4.183,0A4.183,4.183,0,1,1,4.183,0" stroke="#DC2626" stroke-width="2" opacity="0.9"/><path aria-label="weighted_avg_dest_gdp: 24951.2491507; origin: Ecuador" role="graphics-symbol" aria-roledescription="point" transform="translate(235.902719243251,402.5)" d="M4.183,0A4.183,4.183,0,1,1,-4.183,0A4.183,4.183,0,1,1,4.183,0" stroke="#DC2626" stroke-width="2" opacity="0.9"/><path aria-label="weighted_avg_dest_gdp: 25010.4768724; origin: Argentina" role="graphics-symbol" aria-roledescription="point" transform="translate(236.4626904297957,437.5)" d="M4.183,0A4.183,4.183,0,1,1,-4.183,0A4.183,4.183,0,1,1,4.183,0" stroke="#DC2626" stroke-width="2" opacity="0.9"/><path aria-label="weighted_avg_dest_gdp: 37883.9331516; origin: Nicaragua" role="graphics-symbol" aria-roledescription="point" transform="translate(358.17536797892257,472.5)" d="M4.183,0A4.183,4.183,0,1,1,-4.183,0A4.183,4.183,0,1,1,4.183,0" stroke="#DC2626" stroke-width="2" opacity="0.9"/><path aria-label="weighted_avg_dest_gdp: 21084.813005; origin: Bolivia" role="graphics-symbol" aria-roledescription="point" transform="translate(199.34732295682207,507.5)" d="M4.183,0A4.183,4.183,0,1,1,-4.183,0A4.183,4.183,0,1,1,4.183,0" stroke="#DC2626" stroke-width="2" opacity="0.9"/><path aria-label="weighted_avg_dest_gdp: 21565.2005983; origin: Paraguay" role="graphics-symbol" aria-roledescription="point" transform="translate(203.88916929317494,542.5)" d="M4.183,0A4.183,4.183,0,1,1,-4.183,0A4.183,4.183,0,1,1,4.183,0" stroke="#DC2626" stroke-width="2" opacity="0.9"/><path aria-label="weighted_avg_dest_gdp: 47786.0312913; origin: Guyana" role="graphics-symbol" aria-roledescription="point" transform="translate(451.7952049360629,577.5)" d="M4.183,0A4.183,4.183,0,1,1,-4.183,0A4.183,4.183,0,1,1,4.183,0" stroke="#DC2626" stroke-width="2" opacity="0.9"/><path aria-label="weighted_avg_dest_gdp: 16595.5386638; origin: Chile" role="graphics-symbol" aria-roledescription="point" transform="translate(156.90327463988632,612.5)" d="M4.183,0A4.183,4.183,0,1,1,-4.183,0A4.183,4.183,0,1,1,4.183,0" stroke="#DC2626" stroke-width="2" opacity="0.9"/><path aria-label="weighted_avg_dest_gdp: 51079.5254395; origin: Trinidad and Tobago" role="graphics-symbol" aria-roledescription="point" transform="translate(482.93369506464785,647.5)" d="M4.183,0A4.183,4.183,0,1,1,-4.183,0A4.183,4.183,0,1,1,4.183,0" stroke="#DC2626" stroke-width="2" opacity="0.9"/><path aria-label="weighted_avg_dest_gdp: 18967.663774; origin: Uruguay" role="graphics-symbol" aria-roledescription="point" transform="translate(179.33063931761922,682.5)" d="M4.183,0A4.183,4.183,0,1,1,-4.183,0A4.183,4.183,0,1,1,4.183,0" stroke="#DC2626" stroke-width="2" opacity="0.9"/></g><g class="mark-group role-title"><g transform="translate(260,-30)"><path class="background" aria-hidden="true" d="M0,0h0v0h0Z" pointer-events="none"/><g><g class="mark-text role-title-text" role="graphics-symbol" aria-roledescription="title" aria-label="Title text 'Gap in GDP per Capita between Origin and Destination (2024)'" pointer-events="none"><text text-anchor="middle" transform="translate(0,10)" font-family="Inter, Helvetica, Arial, sans-serif" font-size="13px" font-weight="normal" fill="#1F2937" opacity="1">Gap in GDP per Capita between Origin and Destination (2024)</text></g><g class="mark-text role-title-subtitle" role="graphics-symbol" aria-roledescription="subtitle" aria-label="Subtitle text 'Top 10 Latin American and Caribbean countries by migrant stock'" pointer-events="none"><text text-anchor="middle" transform="translate(0,24)" font-family="Inter, Helvetica, Arial, sans-serif" font-size="12px" fill="#4B5563" opacity="1">Top 10 Latin American and Caribbean countries by migrant stock</text></g></g><path class="foreground" aria-hidden="true" d="" pointer-events="none" display="none"/></g></g></g><path class="foreground" aria-hidden="true" d="" display="none"/></g></g></g></svg>